<?xml version="1.0" encoding="utf-8"?>
<!-- Generator: Adobe Illustrator 26.0.1, SVG Export Plug-In . SVG Version: 6.00 Build 0)  -->
<svg version="1.1" id="Capa_1" xmlns="http://www.w3.org/2000/svg" xmlns:xlink="http://www.w3.org/1999/xlink" x="0px" y="0px"
	 viewBox="0 0 60 60" style="enable-background:new 0 0 60 60;" xml:space="preserve">
<style type="text/css">
	.st0{fill:#FFFFFF;}
</style>
<g>
	<path class="st0" d="M18.4,20.8c0.2,0.2,0.5,0.3,0.7,0.3s0.5-0.1,0.7-0.3c0.4-0.4,0.4-1,0-1.4c-1-1-1-2.7,0-3.7
		c0.9-0.9,1.4-2,1.4-3.3s-0.5-2.4-1.4-3.3c-0.4-0.4-1-0.4-1.4,0s-0.4,1,0,1.4c0.5,0.5,0.8,1.1,0.8,1.8s-0.3,1.4-0.8,1.8
		C16.6,16.1,16.6,19,18.4,20.8z"/>
	<path class="st0" d="M40.3,20.8c0.2,0.2,0.5,0.3,0.7,0.3s0.5-0.1,0.7-0.3c0.4-0.4,0.4-1,0-1.4c-1-1-1-2.7,0-3.7
		c0.9-0.9,1.3-2,1.3-3.3s-0.5-2.4-1.3-3.3c-0.4-0.4-1-0.4-1.4,0s-0.4,1,0,1.4c0.5,0.5,0.8,1.1,0.8,1.8s-0.3,1.4-0.8,1.8
		C38.6,16.1,38.6,19,40.3,20.8z"/>
	<path class="st0" d="M29.4,14.8c0.2,0.2,0.5,0.3,0.7,0.3s0.5-0.1,0.7-0.3c0.4-0.4,0.4-1,0-1.4c-1-1-1-2.7,0-3.7
		c0.9-0.9,1.4-2,1.4-3.3s-0.5-2.4-1.4-3.3c-0.4-0.4-1-0.4-1.4,0s-0.4,1,0,1.4c0.5,0.5,0.8,1.1,0.8,1.8s-0.3,1.3-0.8,1.8
		C27.6,10.1,27.6,13,29.4,14.8z"/>
	<path class="st0" d="M55.6,43.7C53.8,33.1,45.5,24.6,35,22.6c0-0.2,0-0.3,0-0.5c0-2.8-2.2-5-5-5s-5,2.2-5,5c0,0.2,0,0.3,0,0.5
		c-10.6,2-18.9,10.5-20.7,21.1C2.3,44.9,0,46.6,0,48.6c0,5.1,15.5,8.5,30,8.5s30-3.4,30-8.5C60,46.6,57.7,44.9,55.6,43.7z M27,22.3
		c0-0.1,0-0.1,0-0.2c0-1.7,1.3-3,3-3s3,1.3,3,3c0,0.1,0,0.1,0,0.2c0,0-0.1,0-0.1,0c-0.3,0-0.7-0.1-1-0.1c-0.1,0-0.3,0-0.4,0
		c-0.5,0-1,0-1.4,0s-1,0-1.4,0c-0.1,0-0.3,0-0.4,0c-0.3,0-0.7,0.1-1,0.1C27.1,22.3,27.1,22.3,27,22.3z M25.1,26.6
		c1.6-0.4,3.2-0.5,4.9-0.5c0,0,0,0,0,0c0.6,0,1,0.4,1,1c0,0.6-0.4,1-1,1l0,0c0,0,0,0,0,0c-1.5,0-3,0.2-4.4,0.5c-0.1,0-0.1,0-0.2,0
		c-0.5,0-0.9-0.3-1-0.8C24.2,27.3,24.6,26.8,25.1,26.6z M19.1,29c0.5-0.3,1.1-0.1,1.4,0.4c0.3,0.5,0.1,1.1-0.4,1.4
		c-4.7,2.8-8.1,7.9-9.2,13.6c-0.1,0.5-0.5,0.8-1,0.8c-0.1,0-0.1,0-0.2,0C9.3,45,8.9,44.5,9,43.9C10.2,37.7,13.9,32.1,19.1,29z
		 M30,55.1c-17.1,0-28-4.3-28-6.5c0-0.4,0.5-1.2,2.1-2.3c0,0.1,0,0.1,0,0.2C4,47,4,47.5,4,48.1v0.8l0.8,0.2c8.3,2,16.7,3,25.2,3
		s17-1,25.2-3l0.8-0.2v-0.8c0-0.6,0-1.1-0.1-1.7c0-0.1,0-0.1,0-0.2c1.6,1.1,2.1,1.9,2.1,2.3C58,50.8,47.1,55.1,30,55.1z"/>
</g>
</svg>
